<svg xmlns="http://www.w3.org/2000/svg" viewBox="0 0 50 50"><defs><style>.cls-1{fill:#fff;}</style></defs><g id="Layer_2" data-name="Layer 2"><g id="Black_Background_Pack" data-name="Black Background Pack"><g id="Instagram"><path class="cls-1" d="M0,0V50H50V0ZM43.13,32.88A10.26,10.26,0,0,1,32.88,43.13H17.12A10.26,10.26,0,0,1,6.87,32.88V17.12A10.26,10.26,0,0,1,17.12,6.87H32.88A10.26,10.26,0,0,1,43.13,17.12ZM44.58,8.63a3,3,0,1,1,3-3A2.95,2.95,0,0,1,44.58,8.63Z"/><path class="cls-1" d="M32.88,9.87H17.12a7.26,7.26,0,0,0-7.25,7.25V32.88a7.26,7.26,0,0,0,7.25,7.25H32.88a7.26,7.26,0,0,0,7.25-7.25V17.12A7.26,7.26,0,0,0,32.88,9.87ZM25,33a8,8,0,1,1,8-8A8,8,0,0,1,25,33Z"/><path class="cls-1" d="M25,19a6,6,0,1,0,6,6A6,6,0,0,0,25,19Z"/></g></g></g></svg>