<svg xmlns="http://www.w3.org/2000/svg" viewBox="0 0 50 50"><defs><style>.cls-1{fill:#231f20;}.cls-2{fill:#fff;}</style></defs><g id="Layer_2" data-name="Layer 2"><g id="Black_Background_Pack" data-name="Black Background Pack"><g id="Pinterest"><rect id="Background" class="cls-1" width="50" height="50"/><g id="Logo"><path class="cls-2" d="M20.49,38.94c.32-1.23,1.64-6.23,1.64-6.23.85,1.63,3.35,3,6,3,7.91,0,13.61-7.28,13.61-16.32,0-8.66-7.07-15.15-16.17-15.15-11.32,0-17.33,7.6-17.33,15.88,0,3.84,2.05,8.63,5.32,10.16.5.23.77.13.88-.35s.53-2.15.73-3a.8.8,0,0,0-.18-.75,10.15,10.15,0,0,1-1.95-6c0-5.78,4.38-11.38,11.84-11.38,6.44,0,11,4.39,11,10.67,0,7.1-3.58,12-8.24,12a3.81,3.81,0,0,1-3.89-4.74c.74-3.11,2.18-6.48,2.18-8.73,0-2-1.08-3.69-3.32-3.69-2.63,0-4.75,2.72-4.75,6.37a9.4,9.4,0,0,0,.79,3.89s-2.6,11-3.08,13a24.11,24.11,0,0,0-.13,7.14.54.54,0,0,0,.38.46l1.08.35a.54.54,0,0,0,.64-.23A27.85,27.85,0,0,0,20.49,38.94Z"/></g></g></g></g></svg>