<svg xmlns="http://www.w3.org/2000/svg" viewBox="0 0 50 50"><defs><style>.cls-1{fill:#fff;}</style></defs><g id="Layer_2" data-name="Layer 2"><g id="Black_Background_Pack" data-name="Black Background Pack"><path id="Pinterest" class="cls-1" d="M0,50H50V0H0ZM25.58,4.25c9.1,0,16.17,6.49,16.17,15.15,0,9-5.7,16.32-13.61,16.32-2.66,0-5.16-1.38-6-3,0,0-1.32,5-1.64,6.23a27.85,27.85,0,0,1-3,6.44.54.54,0,0,1-.64.23l-1.08-.35a.54.54,0,0,1-.38-.46,24.11,24.11,0,0,1,.13-7.14c.48-2,3.08-13,3.08-13a9.4,9.4,0,0,1-.79-3.89c0-3.65,2.12-6.37,4.75-6.37,2.24,0,3.32,1.68,3.32,3.69,0,2.25-1.44,5.62-2.18,8.73a3.81,3.81,0,0,0,3.89,4.74c4.66,0,8.24-4.91,8.24-12,0-6.28-4.51-10.67-11-10.67-7.46,0-11.84,5.6-11.84,11.38a10.15,10.15,0,0,0,1.95,6,.8.8,0,0,1,.18.75c-.2.83-.64,2.61-.73,3s-.38.58-.88.35C10.3,28.76,8.25,24,8.25,20.13,8.25,11.85,14.26,4.25,25.58,4.25Z"/></g></g></svg>