<svg xmlns="http://www.w3.org/2000/svg" viewBox="0 0 50 50"><defs><style>.cls-1{fill:#231f20;}</style></defs><g id="Layer_2" data-name="Layer 2"><g id="Black_Background_Pack" data-name="Black Background Pack"><path id="Telegram" class="cls-1" d="M0,50H50V0H0ZM10.05,23C20.68,18.31,34.44,12.6,36.34,11.81c5-2.06,6.51-1.67,5.75,2.91C41.54,18,40,28.89,38.7,35.67c-.74,4-2.42,4.49-5.05,2.76-1.27-.84-7.67-5.07-9-6.06s-3-2-.83-4.14c.78-.77,5.89-5.65,9.88-9.45a.59.59,0,0,0-.74-.92C27.54,21.42,20.1,26.37,19.15,27a5.5,5.5,0,0,1-5.27.71c-1.87-.54-3.69-1.18-4.4-1.42C6.75,25.36,7.4,24.15,10.05,23Z"/></g></g></svg>