<svg xmlns="http://www.w3.org/2000/svg" viewBox="0 0 50 50"><defs><style>.cls-1{fill:#fff;}.cls-2{fill:#231f20;}</style></defs><g id="Layer_2" data-name="Layer 2"><g id="Black_Background_Pack" data-name="Black Background Pack"><g id="Twitter"><rect id="Background" class="cls-1" width="50" height="50"/><path id="Logo" class="cls-2" d="M42.69,14a14.54,14.54,0,0,1-4.17,1.14,7.26,7.26,0,0,0,3.19-4,14.66,14.66,0,0,1-4.6,1.77,7.26,7.26,0,0,0-12.56,5,6.9,6.9,0,0,0,.19,1.65A20.6,20.6,0,0,1,9.77,12a7.17,7.17,0,0,0-1,3.65,7.24,7.24,0,0,0,3.23,6,7.2,7.2,0,0,1-3.29-.91v.09a7.26,7.26,0,0,0,5.82,7.12,7.1,7.1,0,0,1-1.91.26,6.68,6.68,0,0,1-1.36-.13,7.25,7.25,0,0,0,6.77,5,14.53,14.53,0,0,1-9,3.11,16.41,16.41,0,0,1-1.73-.1,20.51,20.51,0,0,0,11.12,3.26c13.36,0,20.66-11.06,20.66-20.66,0-.31,0-.63,0-.94A14.67,14.67,0,0,0,42.69,14Z"/></g></g></g></svg>