<svg xmlns="http://www.w3.org/2000/svg" viewBox="0 0 50 50"><defs><style>.cls-1{fill:#010101;}</style></defs><g id="Layer_2" data-name="Layer 2"><g id="Layer_1-2" data-name="Layer 1"><path class="cls-1" d="M0,0V50H50V0ZM39.21,17.71c0,.32,0,.64,0,.95,0,9.69-7.37,20.86-20.86,20.86A20.77,20.77,0,0,1,7.13,36.23a14.55,14.55,0,0,0,1.75.1A14.77,14.77,0,0,0,18,33.2a7.36,7.36,0,0,1-6.85-5.1,7,7,0,0,0,1.38.13A7.25,7.25,0,0,0,14.45,28a7.32,7.32,0,0,1-5.88-7.19v-.09a7.33,7.33,0,0,0,3.32.92,7.35,7.35,0,0,1-2.27-9.79,20.77,20.77,0,0,0,15.11,7.66,7,7,0,0,1-.19-1.67,7.34,7.34,0,0,1,12.69-5A14.86,14.86,0,0,0,41.88,11a7.38,7.38,0,0,1-3.22,4.05,14.59,14.59,0,0,0,4.21-1.15A14.82,14.82,0,0,1,39.21,17.71Z"/></g></g></svg>